# xmcd
#
# Track frame offsets:
#	150
#	22155
#	41376
#	50733
#	65637
#	80934
#	98541
#	117330
#	134055
#	150100
#	166608
#	185757
#	195189
#	217371
#	231105
#
# Disc length: 3385 seconds
#
# Revision: 1
# Processed by: cddbd v1.5.2PL0 Copyright (c) Steve Scherf et al.
# Submitted via: audiograbber 1.83.01
#
DISCID=d20d370f
DTITLE=Helbling Verlag - Originalaufnahmen - Highlights of Rock and Pop [CD 1]
DYEAR=1900
DGENRE=Blues
TTITLE0=Bobby Mc Ferrin - Don' Worry, Be Happy
TTITLE1=4 Non Blondes - What's Up
TTITLE2=Queen - We Will Rock You
TTITLE3=Opus - Life Is Life
TTITLE4=Falco - Rock Me Amadeus
TTITLE5=Robert Palmer - I Got Rhythm
TTITLE6=Reinhard Fendrich - Es lebe der Sport
TTITLE7=Max Raabe - Kein Schwein ruft mich an
TTITLE8=Monty Phyton - Always Look On The Bright Side
TTITLE9=Lou Bega - Mambo N° 5
TTITLE10=Los Del Rio - Macarena
TTITLE11=Ritchie Valens - La Bamba
TTITLE12=ABBA - The Winner Takes It All
TTITLE13=Queen - We Are The Champions
TTITLE14=Pet Shop Boys - Go West
EXTD=
EXTT0=
EXTT1=
EXTT2=
EXTT3=
EXTT4=
EXTT5=
EXTT6=
EXTT7=
EXTT8=
EXTT9=
EXTT10=
EXTT11=
EXTT12=
EXTT13=
EXTT14=
PLAYORDER=
